<svg version="1.1" xmlns="http://www.w3.org/2000/svg" xmlns:xlink="http://www.w3.org/1999/xlink" x="0px" y="0px" viewBox="0 0 512 512">
	<style>
		path {
			fill: #5A1900;
		}
	</style>
	<g>
		<path d="M256,512c141.375,0,256-114.625,256-256S397.375,0,256,0S0,114.625,0,256S114.625,512,256,512z M288,288
			c0,17.656-14.344,32-32,32c-17.664,0-32-14.344-32-32V128c0-17.664,14.336-32,32-32c17.656,0,32,14.336,32,32V288z M256,351.484
			c17.656,0,32,14.344,32,32c0,17.672-14.344,32-32,32c-17.664,0-32-14.328-32-32C224,365.828,238.336,351.484,256,351.484z"/>
	</g>
</svg>